<?xml version="1.0" encoding="utf-8"?>
<!-- Generator: Adobe Illustrator 27.5.0, SVG Export Plug-In . SVG Version: 6.00 Build 0)  -->
<svg version="1.1" xmlns="http://www.w3.org/2000/svg" xmlns:xlink="http://www.w3.org/1999/xlink" x="0px" y="0px"
	 viewBox="0 0 500 500" style="enable-background:new 0 0 500 500;" xml:space="preserve">
<g id="Folder">
	<g>
		<g>
			<g>
				
					<rect x="71.863" y="109.521" transform="matrix(0.9918 -0.1279 0.1279 0.9918 -23.9009 19.599)" style="fill:#FFFFFF;stroke:#EC644E;stroke-width:2.5;stroke-linecap:round;stroke-linejoin:round;stroke-miterlimit:10;" width="137.564" height="172.735"/>
				<g>
					
						<line style="fill:none;stroke:#EC644E;stroke-width:2.5;stroke-linecap:round;stroke-linejoin:round;stroke-miterlimit:10;" x1="87.278" y1="208.902" x2="195.567" y2="194.936"/>
					
						<line style="fill:none;stroke:#EC644E;stroke-width:2.5;stroke-linecap:round;stroke-linejoin:round;stroke-miterlimit:10;" x1="88.464" y1="218.1" x2="196.753" y2="204.133"/>
					
						<line style="fill:none;stroke:#EC644E;stroke-width:2.5;stroke-linecap:round;stroke-linejoin:round;stroke-miterlimit:10;" x1="89.65" y1="227.297" x2="168.219" y2="217.163"/>
					
						<line style="fill:none;stroke:#EC644E;stroke-width:2.5;stroke-linecap:round;stroke-linejoin:round;stroke-miterlimit:10;" x1="92.022" y1="245.691" x2="200.312" y2="231.724"/>
					
						<line style="fill:none;stroke:#EC644E;stroke-width:2.5;stroke-linecap:round;stroke-linejoin:round;stroke-miterlimit:10;" x1="93.208" y1="254.888" x2="201.498" y2="240.921"/>
					
						<line style="fill:none;stroke:#EC644E;stroke-width:2.5;stroke-linecap:round;stroke-linejoin:round;stroke-miterlimit:10;" x1="94.394" y1="264.085" x2="202.684" y2="250.118"/>
					
						<line style="fill:none;stroke:#EC644E;stroke-width:2.5;stroke-linecap:round;stroke-linejoin:round;stroke-miterlimit:10;" x1="95.58" y1="273.282" x2="174.149" y2="263.149"/>
					
						<line style="fill:none;stroke:#EC644E;stroke-width:2.5;stroke-linecap:round;stroke-linejoin:round;stroke-miterlimit:10;" x1="77.648" y1="134.24" x2="185.496" y2="120.33"/>
					
						<line style="fill:none;stroke:#EC644E;stroke-width:2.5;stroke-linecap:round;stroke-linejoin:round;stroke-miterlimit:10;" x1="78.834" y1="143.437" x2="186.682" y2="129.527"/>
					
						<line style="fill:none;stroke:#EC644E;stroke-width:2.5;stroke-linecap:round;stroke-linejoin:round;stroke-miterlimit:10;" x1="80.021" y1="152.634" x2="187.868" y2="138.725"/>
					
						<line style="fill:none;stroke:#EC644E;stroke-width:2.5;stroke-linecap:round;stroke-linejoin:round;stroke-miterlimit:10;" x1="81.207" y1="161.831" x2="189.055" y2="147.922"/>
					
						<line style="fill:none;stroke:#EC644E;stroke-width:2.5;stroke-linecap:round;stroke-linejoin:round;stroke-miterlimit:10;" x1="83.999" y1="183.482" x2="192.289" y2="169.516"/>
					
						<line style="fill:none;stroke:#EC644E;stroke-width:2.5;stroke-linecap:round;stroke-linejoin:round;stroke-miterlimit:10;" x1="85.185" y1="192.68" x2="163.754" y2="182.546"/>
				</g>
			</g>
		</g>
		<g>
			<g>
				<g>
					<g>
						<path style="fill:#EC644E;" d="M49.373,268.233l0,175.173c0,5.771,4.678,10.449,10.449,10.449l246.991,0
							c5.771,0,10.449-4.678,10.449-10.449l0-159.971c0-5.771-4.678-10.449-10.449-10.449H152.086
							c-4.674,0-8.779-3.104-10.053-7.601l0,0c-1.274-4.497-5.38-7.601-10.053-7.601l-72.157,0
							C54.051,257.784,49.373,262.462,49.373,268.233z"/>
					</g>
				</g>
			</g>
			<g>
				<g>
					<g>
						<path style="fill:#FFFFFF;" d="M317.267,283.437v159.97c0,5.77-4.68,10.45-10.45,10.45h-8.3c5.77,0,10.45-4.68,10.45-10.45
							v-159.97c0-5.77-4.68-10.45-10.45-10.45h8.3C312.587,272.987,317.267,277.667,317.267,283.437z"/>
					</g>
				</g>
			</g>
			<g>
				<g>
					<g>
						
							<path style="fill:none;stroke:#263238;stroke-width:2.5;stroke-linecap:round;stroke-linejoin:round;stroke-miterlimit:10;" d="
							M49.373,268.233l0,175.173c0,5.771,4.678,10.449,10.449,10.449l246.991,0c5.771,0,10.449-4.678,10.449-10.449l0-159.971
							c0-5.771-4.678-10.449-10.449-10.449H152.086c-4.674,0-8.779-3.104-10.053-7.601l0,0c-1.274-4.497-5.38-7.601-10.053-7.601
							l-72.157,0C54.051,257.784,49.373,262.462,49.373,268.233z"/>
					</g>
				</g>
			</g>
			
				<path style="fill:#FFFFFF;stroke:#263238;stroke-width:2.5;stroke-linecap:round;stroke-linejoin:round;stroke-miterlimit:10;" d="
				M125.134,272.532H62.759c-2.099,0-3.8-1.701-3.8-3.8l0,0c0-2.099,1.701-3.8,3.8-3.8h62.375c2.099,0,3.8,1.701,3.8,3.8l0,0
				C128.934,270.83,127.233,272.532,125.134,272.532z"/>
		</g>
		<g>
			<g>
				
					<polygon style="fill:#FFFFFF;stroke:#263238;stroke-width:2.5;stroke-linecap:round;stroke-linejoin:round;stroke-miterlimit:10;" points="
					293.799,371.17 147.988,371.17 147.988,188.079 262.474,188.079 293.799,219.515 				"/>
				<g>
					
						<line style="fill:none;stroke:#9ABAE3;stroke-width:2.5;stroke-linecap:round;stroke-linejoin:round;stroke-miterlimit:10;" x1="163.028" y1="286.07" x2="278.76" y2="286.07"/>
					
						<line style="fill:none;stroke:#9ABAE3;stroke-width:2.5;stroke-linecap:round;stroke-linejoin:round;stroke-miterlimit:10;" x1="163.028" y1="295.899" x2="278.76" y2="295.899"/>
					
						<line style="fill:none;stroke:#9ABAE3;stroke-width:2.5;stroke-linecap:round;stroke-linejoin:round;stroke-miterlimit:10;" x1="163.028" y1="305.728" x2="246.996" y2="305.728"/>
					
						<line style="fill:none;stroke:#9ABAE3;stroke-width:2.5;stroke-linecap:round;stroke-linejoin:round;stroke-miterlimit:10;" x1="163.028" y1="259.17" x2="278.76" y2="259.17"/>
					
						<line style="fill:none;stroke:#9ABAE3;stroke-width:2.5;stroke-linecap:round;stroke-linejoin:round;stroke-miterlimit:10;" x1="163.028" y1="268.999" x2="246.996" y2="268.999"/>
					
						<line style="fill:none;stroke:#9ABAE3;stroke-width:2.5;stroke-linecap:round;stroke-linejoin:round;stroke-miterlimit:10;" x1="163.028" y1="325.386" x2="278.76" y2="325.386"/>
					
						<line style="fill:none;stroke:#9ABAE3;stroke-width:2.5;stroke-linecap:round;stroke-linejoin:round;stroke-miterlimit:10;" x1="163.028" y1="335.216" x2="278.76" y2="335.215"/>
					
						<line style="fill:none;stroke:#9ABAE3;stroke-width:2.5;stroke-linecap:round;stroke-linejoin:round;stroke-miterlimit:10;" x1="163.028" y1="345.045" x2="278.76" y2="345.044"/>
					
						<line style="fill:none;stroke:#9ABAE3;stroke-width:2.5;stroke-linecap:round;stroke-linejoin:round;stroke-miterlimit:10;" x1="163.028" y1="354.874" x2="246.996" y2="354.874"/>
					
						<rect x="163.028" y="208.483" style="fill:#EC644E;stroke:#263238;stroke-width:2.5;stroke-linecap:round;stroke-linejoin:round;stroke-miterlimit:10;" width="83.969" height="34.515"/>
				</g>
				
					<polygon style="fill:#FFFFFF;stroke:#263238;stroke-width:2.5;stroke-linecap:round;stroke-linejoin:round;stroke-miterlimit:10;" points="
					262.474,219.515 293.799,219.515 262.474,188.19 				"/>
			</g>
		</g>
		<g>
			<g>
				<g>
					<g>
						<path style="fill:#EC644E;" d="M330.455,296.785l-5.761,147.032c-0.22,5.607-4.829,10.04-10.441,10.04H63.307
							c-5.932,0-10.674-4.932-10.441-10.859l5.77-147.032c0.22-5.607,4.83-10.039,10.441-10.039h250.936
							C325.945,285.927,330.687,290.858,330.455,296.785z"/>
					</g>
				</g>
			</g>
			<g>
				<g>
					<g>
						<path style="fill:#FFFFFF;" d="M330.452,296.787l-5.76,147.03c-0.22,5.61-4.83,10.04-10.44,10.04h-9.25
							c5.61,0,10.22-4.43,10.44-10.04l5.76-147.03c0.23-5.93-4.51-10.86-10.44-10.86h9.25
							C325.942,285.927,330.692,290.857,330.452,296.787z"/>
					</g>
				</g>
			</g>
			<g>
				<g>
					<g>
						
							<path style="fill:none;stroke:#263238;stroke-width:2.5;stroke-linecap:round;stroke-linejoin:round;stroke-miterlimit:10;" d="
							M330.455,296.785l-5.761,147.032c-0.22,5.607-4.829,10.04-10.441,10.04H63.307c-5.932,0-10.674-4.932-10.441-10.859
							l5.77-147.032c0.22-5.607,4.83-10.039,10.441-10.039h250.936C325.945,285.927,330.687,290.858,330.455,296.785z"/>
					</g>
				</g>
			</g>
		</g>
	</g>
</g>
<g id="Character">
	<g>
		<g>
			<g>
				<g>
					<g>
						
							<polygon style="fill:#FCD8C3;stroke:#263238;stroke-width:2.5;stroke-linecap:round;stroke-linejoin:round;stroke-miterlimit:10;" points="
							408.68,416.732 419.281,432.924 453.264,411.996 446.314,393.556 						"/>
					</g>
					<g>
						
							<polygon style="fill:#EC644E;stroke:#263238;stroke-width:2.5;stroke-linecap:round;stroke-linejoin:round;stroke-miterlimit:10;" points="
							453.261,411.999 461.716,425.728 412.12,456.271 419.282,432.924 416.316,430.362 451.922,408.435 						"/>
						
							<path style="fill:#FFFFFF;stroke:#263238;stroke-width:2.5;stroke-linecap:round;stroke-linejoin:round;stroke-miterlimit:10;" d="
							M462.614,427.186l-9.353-15.188c-3.222,2.94-7.314,16.539-10.1,19.118c-2.786,2.579-7.835,2.926-10.219,4.771
							c-2.384,1.845-3.727,4.555-5.366,5.564c-1.638,1.009-7.656-0.841-11.474,1.841c-3.818,2.681-6.269,16.399-3.083,14.437
							C416.204,455.767,462.614,427.186,462.614,427.186z"/>
					</g>
				</g>
				<g>
					<path style="fill:#9ABAE3;" d="M418.408,226.001c0,0,11.604,31.149,6.073,43.66c-1.728,3.91,1.827,45.108-0.049,54.85
						c0,0,11.117,11.608,16.346,33.866c3.2,13.618,11.121,24.576,13.87,34.853c1.34,5.009-1.552,11.306-1.552,11.306
						s-1.33-12.095-32.098,16.107c-9.024,8.271-15.479,4.815-15.479,4.815s-34.893-77.658-36.379-84.812
						c-2.257-10.867-11.183-89.44-10.948-114.647H418.408z"/>
					<path style="fill:#FFFFFF;" d="M454.647,393.23c-2.75-10.28-10.67-21.24-13.87-34.85c-5.23-22.26-16.34-33.87-16.34-33.87
						c1.87-9.74-1.68-50.94,0.04-54.85c5.54-12.51-6.07-43.66-6.07-43.66h-0.116v29.059c0.477,5.295,0.249,10.212-1.294,13.701
						c-1.75,3.97,1.86,45.8-0.05,55.69c0,0,11.29,11.79,16.6,34.39c3.25,13.83,11.3,25.05,14.09,35.49c0.59,2.2,0.37,4.64-0.06,6.71
						c5.14-0.6,5.52,3.5,5.52,3.5S455.987,398.24,454.647,393.23z"/>
					
						<path style="fill:none;stroke:#263238;stroke-width:2.5;stroke-linecap:round;stroke-linejoin:round;stroke-miterlimit:10;" d="
						M414.115,327.599c-2.461,1.331-13.381,3.931-17.189,4.092"/>
					<path style="fill:#263238;" d="M448.242,401.999l2.594,6.988c0,0,1.957-1.164,2.926-3.492
						C454.732,403.168,451.562,401.911,448.242,401.999z"/>
					
						<path style="fill:none;stroke:#263238;stroke-width:2.5;stroke-linecap:round;stroke-linejoin:round;stroke-miterlimit:10;" d="
						M418.408,226.001c0,0,11.604,31.149,6.073,43.66c-1.728,3.91,1.827,45.108-0.049,54.85c0,0,11.117,11.608,16.346,33.866
						c3.2,13.618,11.121,24.576,13.87,34.853c1.34,5.009-1.552,11.306-1.552,11.306s-1.33-12.095-32.098,16.107
						c-9.024,8.271-15.479,4.815-15.479,4.815s-34.893-77.658-36.379-84.812c-2.257-10.867-11.183-89.44-10.948-114.647H418.408z"/>
				</g>
			</g>
			<g>
				<g>
					<g>
						
							<polygon style="fill:#FCD8C3;stroke:#263238;stroke-width:2.5;stroke-linecap:round;stroke-linejoin:round;stroke-miterlimit:10;" points="
							307.848,421.246 308.384,440.592 348.294,440.592 352.046,421.246 						"/>
					</g>
					<g>
						
							<polygon style="fill:#EC644E;stroke:#263238;stroke-width:2.5;stroke-linecap:round;stroke-linejoin:round;stroke-miterlimit:10;" points="
							348.29,440.593 348.29,456.717 290.044,456.717 308.384,440.593 307.203,436.856 349.018,436.856 						"/>
						
							<path style="fill:#FFFFFF;stroke:#263238;stroke-width:2.5;stroke-linecap:round;stroke-linejoin:round;stroke-miterlimit:10;" d="
							M348.29,458.43v-17.836c-4.285,0.814-14.901,10.247-18.625,10.982c-3.725,0.735-8.206-1.617-11.203-1.296
							c-2.997,0.321-5.563,1.924-7.487,1.924c-1.924,0-6.078-4.73-10.735-4.45c-4.657,0.281-13.937,10.676-10.196,10.676
							C293.785,458.43,348.29,458.43,348.29,458.43z"/>
					</g>
				</g>
				<g>
					
						<path style="fill:#9ABAE3;stroke:#263238;stroke-width:2.5;stroke-linecap:round;stroke-linejoin:round;stroke-miterlimit:10;" d="
						M381.971,269.606c-2.791,1.715-10.239,3.585-14.054,4.656c-4.116,1.155-7.82,46.735-9.695,56.477
						c0,0,4.864,19.332,3.964,40.119c-0.662,15.284,0.345,41.686-2.724,54.076c-0.802,3.237-3.903,8.391-3.903,8.391
						s3.991-11.525-31.259-0.884c-11.819,3.568-20.103-2.548-20.103-2.548s-6.158-75.042-6.833-82.318
						c-0.675-7.275,6.872-91.586,15.433-121.575h74.645"/>
					
						<path style="fill:none;stroke:#263238;stroke-width:2.5;stroke-linecap:round;stroke-linejoin:round;stroke-miterlimit:10;" d="
						M348.225,334.135c-2.702,0.725-13.927,0.725-17.669,0"/>
					<path style="fill:#263238;" d="M349.628,434.964l1.59-6.288c0,0,8.109,4.487,4.617,5.817
						C352.344,435.823,349.628,434.964,349.628,434.964z"/>
					
						<polyline style="fill:none;stroke:#263238;stroke-width:2.5;stroke-linecap:round;stroke-linejoin:round;stroke-miterlimit:10;" points="
						335.06,242.41 334.232,261.384 348.1,266.726 360.503,262.292 360.876,242.41 341.388,242.41 					"/>
					
						<polyline style="fill:none;stroke:#263238;stroke-width:2.5;stroke-linecap:round;stroke-linejoin:round;stroke-miterlimit:10;" points="
						394.766,242.41 393.982,261.384 407.113,266.726 418.856,262.292 419.21,242.41 400.757,242.41 					"/>
					
						<path style="fill:none;stroke:#263238;stroke-width:2.5;stroke-linecap:round;stroke-linejoin:round;stroke-miterlimit:10;" d="
						M321.513,231.176c0,0-14.877,73.681-14.877,111.369c0,9.311,5.365,78.701,5.365,78.701"/>
				</g>
			</g>
		</g>
		<g>
			<g>
				
					<rect x="255.224" y="61.213" transform="matrix(0.9838 -0.1792 0.1792 0.9838 -13.7797 58.7355)" style="fill:#FFFFFF;stroke:#263238;stroke-width:2.5;stroke-linecap:round;stroke-linejoin:round;stroke-miterlimit:10;" width="125.862" height="88.824"/>
				
					<rect x="262.384" y="68.344" transform="matrix(0.9838 -0.1792 0.1792 0.9838 -13.7797 58.7352)" style="fill:#9ABAE3;stroke:#263238;stroke-width:2.5;stroke-linecap:round;stroke-linejoin:round;stroke-miterlimit:10;" width="111.542" height="74.562"/>
				
					<path style="fill:#FFFFFF;stroke:#263238;stroke-width:2.5;stroke-linecap:round;stroke-linejoin:round;stroke-miterlimit:10;" d="
					M348.288,90.393c0.855,4.693-2.256,9.191-6.949,10.046c-4.693,0.855-9.191-2.256-10.046-6.95
					c-0.855-4.693,2.256-9.191,6.949-10.046C342.935,82.588,347.433,85.7,348.288,90.393z"/>
				
					<polygon style="fill:#FFFFFF;stroke:#263238;stroke-width:2.5;stroke-linecap:round;stroke-linejoin:round;stroke-miterlimit:10;" points="
					269.969,152.299 306.452,99.561 345.579,126.629 354.742,118.519 379.682,132.182 				"/>
			</g>
			<g>
				<g>
					<path style="fill:#263238;" d="M374.287,118.847c0,0-4.293,5.071-1.24,6.075c4.789,1.574,12.405-5.452,12.405-5.452
						L374.287,118.847z"/>
					<g>
						<g>
							<path style="fill:#FCD8C3;" d="M392.383,109.819c2.749-8.039-0.511-16.434-7.283-18.75
								c-6.772-2.316-14.49,2.323-17.24,10.363c-2.75,8.039,0.511,16.434,7.282,18.75
								C381.915,122.498,389.633,117.858,392.383,109.819z"/>
							<path style="fill:#FFFFFF;" d="M375.144,120.182c1.89,0.645,3.859,0.751,5.768,0.383c-0.943-0.052-1.878-0.232-2.801-0.544
								c-6.417-2.199-9.508-10.155-6.904-17.779c2.61-7.624,9.927-12.019,16.344-9.825c0.161,0.057,0.327,0.114,0.483,0.181
								c-0.883-0.646-1.866-1.165-2.935-1.529c-6.769-2.313-14.489,2.325-17.239,10.364
								C365.11,109.472,368.37,117.864,375.144,120.182z"/>
							
								<path style="fill:none;stroke:#263238;stroke-width:2.5;stroke-linecap:round;stroke-linejoin:round;stroke-miterlimit:10;" d="
								M392.383,109.819c2.749-8.039-0.511-16.434-7.283-18.75c-6.772-2.316-14.49,2.323-17.24,10.363
								c-2.75,8.039,0.511,16.434,7.282,18.75C381.915,122.498,389.633,117.858,392.383,109.819z"/>
						</g>
					</g>
				</g>
				<path style="fill:#263238;" d="M381.169,106.911c0,0-9.7-3.472-6.806-14.151c0,0,12.266-7.928,16.913,3.424
					c4.647,11.351-1.767,19.749-5.293,22.242C385.983,118.426,380.686,115.054,381.169,106.911z"/>
			</g>
			<g>
				<g>
					<path style="fill:#EC644E;" d="M423.947,205.967c-1.949-4.942,5.014-28.536,4.197-49.376
						c3.782-11.316,4.535-25.459-9.571-34.587c-5.155-3.336-11.293-2.556-16.634-0.114c-10.039-2.472-16.623-1.188-25.6-2.282
						c-6.929-0.845-17.455-5.242-28.997,2.319c-12.568,8.233-23.64,42.8-26.797,53.415c-3.417,2.393-5.492,0.908-5.492,0.908
						s1.429,1.622,3.83,4.184c-8.411,21.629-17.048,37.368-18.313,41.205c-2.631,7.981,1.503,11.577,1.503,11.577
						s1.213-2.756,14.902-1.458c10.763,1.021,46.507,11.849,68.485,12.02c21.978,0.171,34.514-4.44,40.214-5.349
						c7.196-1.148,7.521,1.065,7.521,1.065C436.066,229.773,431.608,225.393,423.947,205.967z"/>
					<path style="fill:#263238;" d="M313.959,176.228c-2.238-1.445,3.552-6.415,3.552-6.415l4.002,3.533
						C321.513,173.346,315.826,177.433,313.959,176.228z"/>
				</g>
				<g>
					<path style="fill:#FFFFFF;" d="M433.201,239.493c0,0-0.31-2.08-6.91-1.16c1.62-7.69-2.31-13.34-8.01-30.97
						c-1.63-5.05,9.37-29.92,9.86-50.77c4.48-11.06,6.831-24.911-9.95-33.36c-5.486-2.762-11.11-3.26-16.6-1.16
						c-1.27-0.4-2.48-0.73-3.66-1.01c1.28,0.21,2.61,0.48,4.01,0.83c5.34-2.45,11.48-3.23,16.63,0.11
						c14.11,9.13,13.36,23.27,9.57,34.59c0.82,20.84-6.14,44.43-4.19,49.37C431.611,225.393,436.061,229.773,433.201,239.493z"/>
				</g>
				<g>
					<path style="fill:#FFFFFF;" d="M311.751,171.043c-0.05,0.01-0.1,0.01-0.14,0.01c-0.06-0.08-0.1-0.13-0.12-0.16
						C311.531,170.913,311.611,170.973,311.751,171.043z"/>
					<path style="fill:#FFFFFF;" d="M426.291,238.333c-0.2,0.98-0.49,1.99-0.88,3.07c0,0-0.16-1.86-5.75-1.64
						c2.52-0.6,4.5-1.1,6.01-1.34C425.881,238.393,426.091,238.363,426.291,238.333z"/>
					<path style="fill:#FFFFFF;" d="M311.751,171.043c-0.05,0.01-0.1,0.01-0.14,0.01c-0.06-0.08-0.1-0.13-0.12-0.16
						C311.531,170.913,311.611,170.973,311.751,171.043z"/>
				</g>
				<path style="fill:none;stroke:#263238;stroke-width:2.5;stroke-linecap:round;stroke-linejoin:round;stroke-miterlimit:10;" d="
					M347.343,121.925c-12.568,8.233-23.64,42.8-26.797,53.415c-3.417,2.393-5.492,0.908-5.492,0.908s1.429,1.622,3.83,4.184
					c-8.411,21.629-17.048,37.368-18.313,41.205c-2.631,7.981,1.503,11.577,1.503,11.577s1.213-2.756,14.902-1.458
					c10.763,1.021,46.507,11.849,68.485,12.02c21.978,0.171,34.514-4.44,40.214-5.349c7.196-1.148,7.521,1.065,7.521,1.065
					c2.87-9.719-1.588-14.099-9.249-33.525c-2.067-5.241,6.135-27.381,4.1-49.075l-0.001-0.001
					c3.868-11.364,4.758-25.679-9.473-34.888c-2.679-1.734-5.624-2.356-8.584-2.211"/>
				<path style="fill:#263238;" d="M310.945,231.176l-1.017,5.104c0,0-8.927-0.451-9.001-2.805
					C300.853,231.122,310.945,231.176,310.945,231.176z"/>
				<path style="fill:#263238;" d="M434.042,240.053c-0.11,1.283-4.988,2.614-9.896,4.06l-1.163-5.352
					C422.983,238.761,434.309,236.949,434.042,240.053z"/>
			</g>
			<path style="fill:none;stroke:#263238;stroke-width:2.5;stroke-linecap:round;stroke-linejoin:round;stroke-miterlimit:10;" d="
				M408.078,226.008c0,0-26.809-4.709-36.104-19.166"/>
			<g>
				<g>
					<g>
						<g>
							
								<path style="fill:#FCD8C3;stroke:#263238;stroke-width:2.5;stroke-linecap:round;stroke-linejoin:round;stroke-miterlimit:10;" d="
								M256.347,155.373c3.209,8.025,21.173,20.674,21.173,20.674l16.189-27.057c0,0-10.416-8.428-11.551-9.984
								c-1.009-1.387-6.243-15.054-9.297-15.584c-5.462-0.949-2.859,16.021-3.58,15.968c-5.773-0.423-10.108-24.215-14.734-24.805
								C248.285,113.787,250.725,141.314,256.347,155.373z"/>
						</g>
						
							<path style="fill:none;stroke:#263238;stroke-width:2.5;stroke-linecap:round;stroke-linejoin:round;stroke-miterlimit:10;" d="
							M272.695,125.418c0,0-1.5,8.981,7.18,9.433"/>
					</g>
				</g>
				
					<path style="fill:#EC644E;stroke:#263238;stroke-width:2.5;stroke-linecap:round;stroke-linejoin:round;stroke-miterlimit:10;" d="
					M354.904,170.402c-15.793,17.647-26.088,29.984-40.569,37.51c-4.358,2.265-15.641,2.861-26.702-3.804
					c-16.505-9.945-29.909-36.81-29.909-36.81s5.864,5.128,16.431-13.505c9.765-17.219,14.332-15.583,14.332-15.583
					s6.833,5.29,15.697,15.844c0,0,21.246-24.071,32.516-31.585c8.119-5.414,17.334-7.049,29.579-4.479"/>
				<path style="fill:#263238;" d="M256.635,167.175c-2.091-1.649,4.141-6.052,4.141-6.052l3.651,3.895
					C264.427,165.017,258.38,168.55,256.635,167.175z"/>
				
					<line style="fill:none;stroke:#263238;stroke-width:2.5;stroke-linecap:round;stroke-linejoin:round;stroke-miterlimit:10;" x1="347.554" y1="179.122" x2="355.971" y2="175.155"/>
			</g>
			<g>
				<path style="fill:#EC644E;" d="M364.889,117.595c0,0,31.298-2.954,40.986-0.725c19.096,4.393,25.48,37.066,12.679,42.71
					c-16.249,7.163-36.409-22.217-39.032-22.399c-2.623-0.181-19.795,4.252-19.453-10.833"/>
				<path style="fill:#FFFFFF;" d="M418.809,126.576c7.068,11.161,1.716,29.704-6.413,34.116c2.078,0.101,4.145-0.229,6.153-1.107
					c8.453-3.729,8.544-19.215,2.145-30.583L418.809,126.576z"/>
				<path style="fill:#FFFFFF;" d="M373.866,116.874c-5.266,0.368-8.981,0.718-8.981,0.718l-0.506,0.927
					c2.662-0.201,5.961-0.428,9.487-0.618V116.874z"/>
				<path style="fill:none;stroke:#263238;stroke-width:2.5;stroke-linecap:round;stroke-linejoin:round;stroke-miterlimit:10;" d="
					M364.889,117.595c0,0,31.298-2.954,40.986-0.725c19.096,4.393,25.48,37.066,12.679,42.71
					c-16.249,7.163-36.409-22.217-39.032-22.399c-2.623-0.181-19.795,4.252-19.453-10.833"/>
			</g>
			<g>
				
					<path style="fill:#EC644E;stroke:#263238;stroke-width:2.5;stroke-linecap:round;stroke-linejoin:round;stroke-miterlimit:10;" d="
					M393.411,96.468c0.204,2.798-1.899,5.232-4.697,5.436c-2.798,0.204-5.232-1.899-5.436-4.697
					c-0.204-2.798,1.899-5.232,4.697-5.436C390.773,91.566,393.206,93.67,393.411,96.468z"/>
				<path style="fill:#263238;" d="M446.607,155.049c2.195-3.085-2.446-6.584-4.686-3.435
					C439.547,154.949,444.204,158.426,446.607,155.049z"/>
				<path style="fill:#263238;" d="M467.766,155.223c-1.482-2.883-3.866-0.618-8.249,0.078c-3.651,0.579-7.846-0.997-8.825,1.293
					c-1.015,2.375,1.156,5.726,8.094,5.348C464.636,161.623,469.31,158.229,467.766,155.223z"/>
				<path style="fill:#263238;" d="M388.954,96.187c2.607,2.363,6.733-0.559,8.69,3.724c1.958,4.283,3.561,14.415,12.472,17.91
					c8.911,3.496,20.302,0.121,24.419,14.614c4.389,15.451,19.35,23.249,29.7,15.922c10.409-7.369,2.365-31.411-14.552-37.968
					c-14.156-5.487-25.921,0.827-35.778-2.788c-7.746-2.841-8.953-14.327-15.777-16.598
					C391.304,88.732,386.08,93.582,388.954,96.187z"/>
			</g>
		</g>
	</g>
</g>
</svg>
